<?xml version="1.0" encoding="utf-8"?>
<!-- Generator: Adobe Illustrator 15.0.0, SVG Export Plug-In . SVG Version: 6.00 Build 0)  -->
<!DOCTYPE svg PUBLIC "-//W3C//DTD SVG 1.1//EN" "http://www.w3.org/Graphics/SVG/1.1/DTD/svg11.dtd">
<svg version="1.1" id="Layer_1" xmlns="http://www.w3.org/2000/svg" xmlns:xlink="http://www.w3.org/1999/xlink" x="0px" y="0px"
	 width="26px" height="26px" viewBox="0 0 26 26" enable-background="new 0 0 26 26" xml:space="preserve">
<g>
	<path d="M9.871,8.961c0.044,0.27,0.148,0.44,0.25,0.547c0.244,1.623,1.602,3.13,2.843,3.13c1.446,0,2.764-1.631,3.02-3.127
		c0.104-0.106,0.209-0.278,0.255-0.55c0.083-0.304,0.188-0.833,0.002-1.08c-0.01-0.012-0.021-0.024-0.03-0.036
		c0.175-0.639,0.396-1.958-0.395-2.858c-0.07-0.09-0.514-0.62-1.462-0.899l-0.452-0.156c-0.745-0.23-1.215-0.282-1.234-0.284
		c-0.033-0.003-0.069,0-0.102,0.009c-0.026,0.007-0.114,0.031-0.184,0.021c-0.178-0.025-0.445,0.066-0.494,0.084
		c-0.061,0.024-1.505,0.603-1.944,1.949C9.904,5.821,9.729,6.393,9.961,7.795C9.927,7.818,9.896,7.848,9.869,7.883
		C9.682,8.129,9.788,8.657,9.871,8.961z M10.438,5.903c0.003-0.007,0.005-0.014,0.008-0.022c0.357-1.109,1.624-1.621,1.632-1.625
		c0.059-0.022,0.171-0.054,0.231-0.054c0.125,0.017,0.268-0.005,0.346-0.023c0.127,0.018,0.523,0.083,1.083,0.255l0.455,0.156
		c0.845,0.25,1.203,0.717,1.205,0.721c0.005,0.007,0.011,0.014,0.017,0.02c0.732,0.826,0.354,2.191,0.221,2.589
		c-0.031,0.094-0.008,0.196,0.061,0.267c0.034,0.036,0.076,0.06,0.122,0.073c0.001,0.129-0.035,0.367-0.093,0.574
		c-0.003,0.01-0.005,0.02-0.007,0.03c-0.022,0.146-0.071,0.252-0.138,0.301c-0.057,0.042-0.095,0.105-0.104,0.175
		c-0.177,1.254-1.337,2.77-2.512,2.77c-0.988,0-2.165-1.396-2.332-2.765c-0.009-0.071-0.046-0.136-0.104-0.179
		c-0.067-0.05-0.116-0.158-0.139-0.302c-0.001-0.01-0.004-0.021-0.006-0.031c-0.054-0.192-0.089-0.413-0.092-0.546
		c0.05-0.005,0.099-0.022,0.141-0.055c0.079-0.061,0.116-0.16,0.098-0.258C10.241,6.452,10.438,5.903,10.438,5.903z"/>
	<path d="M18.589,13.825c0,0-0.295-0.403-0.994-0.67c0,0-0.058-0.018-0.148-0.047c-0.621-0.292-1.212-0.479-1.212-0.479
		c-0.127-0.045-0.237-0.089-0.339-0.133c-0.421-0.209-0.772-0.444-0.846-0.665l0.316,2.537l-2.294,5.895l-2.166-5.775l0.044-2.661
		c-0.196,0.614-2.546,1.328-2.546,1.328c-0.699,0.268-0.994,0.67-0.994,0.67c-1.033,1.533-1.155,4.942-1.155,4.942
		c0.014,0.779,0.35,0.861,0.35,0.861c2.375,1.059,6.104,1.248,6.104,1.248c0.201,0.004,0.389-0.006,0.575-0.018l0.005,0.02
		c0,0,3.729-0.189,6.104-1.248c0,0,0.337-0.082,0.35-0.861C19.743,18.768,19.622,15.357,18.589,13.825z"/>
	<path d="M14.97,11.932c0.027-0.034,0.054-0.065,0.08-0.101c-0.005-0.022-0.006-0.034-0.006-0.034
		C15.019,11.845,14.994,11.885,14.97,11.932z"/>
	<path d="M10.962,11.822l-0.006-0.024l-0.005,0.028c0.001-0.005,0.006-0.01,0.007-0.015C10.958,11.811,10.96,11.815,10.962,11.822z"
		/>
	<path d="M12.074,12.9l1.018,1.557l1.018-1.557C12.987,13.379,12.074,12.9,12.074,12.9z"/>
	<polygon points="13.092,19.693 13.87,14.965 13.092,14.457 12.313,14.965 	"/>
</g>
</svg>
